<svg id="Layer_1" data-name="Layer 1" xmlns="http://www.w3.org/2000/svg" viewBox="0 0 140 140"><defs><style>.cls-1{fill:#0073dc;}.cls-2,.cls-3,.cls-4{fill:none;stroke-width:2px;}.cls-2{stroke:#0a0a0a;}.cls-2,.cls-3{stroke-miterlimit:10;}.cls-3,.cls-4{stroke:#151f28;}.cls-4{stroke-linecap:round;stroke-linejoin:round;}.cls-5{fill:#ff9522;}</style></defs><path class="cls-1" d="M66.86,37.09v9.73S56,45.22,52.05,55.26a16.12,16.12,0,0,0-.7,9.54c1.33,5.91,6,14.88,21.92,8.87V37.09ZM70.3,69.85l-1.78.22a6.6,6.6,0,0,1-3.06-.29A6.68,6.68,0,0,1,61,63.49V59.36A7.35,7.35,0,0,1,68.37,52H70.3Z"/><path class="cls-2" d="M76.72,73.67V37.09H70.3v9.73s-10.82-1.6-14.81,8.44a16.12,16.12,0,0,0-.7,9.54C56.13,70.71,60.75,79.68,76.72,73.67Z"/><path class="cls-3" d="M122.29,108.78v11a1,1,0,0,1-1,1h-31a1,1,0,0,1-1-1v-11"/><polygon class="cls-1" points="105.29 102.78 112.29 102.78 103.29 111.78 94.29 102.78 101.29 102.78 101.29 88.78 105.29 88.78 105.29 102.78"/><polygon class="cls-4" points="109.29 102.78 116.29 102.78 105.29 113.78 94.29 102.78 101.29 102.78 101.29 88.78 109.29 88.78 109.29 102.78"/><polygon class="cls-5" points="48.59 76.41 41.79 76.41 34.46 61.78 27.5 76.41 20.98 76.41 30.61 57.33 20.98 38.24 28.01 38.24 34.78 52.56 41.93 38.24 48.59 38.24 38.96 57.33 48.59 76.41"/><rect class="cls-2" x="12.36" y="21.67" width="78" height="74.74"/><polygon class="cls-2" points="52.32 75.26 45.52 75.26 38.2 60.63 31.23 75.26 24.72 75.26 34.35 56.17 24.72 37.09 31.75 37.09 38.52 51.41 45.67 37.09 52.32 37.09 42.69 56.17 52.32 75.26"/><path class="cls-2" d="M68.52,70.07l1.78-.22V52H68.37A7.35,7.35,0,0,0,61,59.36v4.13a6.68,6.68,0,0,0,4.47,6.29A6.6,6.6,0,0,0,68.52,70.07Z"/></svg>