<svg id="Layer_1" data-name="Layer 1" xmlns="http://www.w3.org/2000/svg" viewBox="0 0 140 140"><defs><style>.cls-1{fill:#ff9522;}.cls-2,.cls-5{fill:none;}.cls-2,.cls-3,.cls-5{stroke:#151f28;stroke-width:2px;}.cls-2,.cls-3{stroke-miterlimit:10;}.cls-3{fill:#fff;}.cls-4{fill:#0073dc;}.cls-5{stroke-linecap:round;stroke-linejoin:round;}</style></defs><rect class="cls-1" x="24.79" y="29.28" width="57" height="28" rx="14"/><path class="cls-2" d="M40.79,82.28h15a0,0,0,0,1,0,0v14a14,14,0,0,1-14,14h-1a14,14,0,0,1-14-14v0a14,14,0,0,1,14-14Z"/><line class="cls-3" x1="55.79" y1="26.28" x2="55.79" y2="81.28"/><rect class="cls-2" x="26.79" y="26.28" width="57" height="28" rx="14"/><circle class="cls-4" cx="66.79" cy="70.28" r="14"/><circle class="cls-2" cx="69.79" cy="68.28" r="14"/><path class="cls-2" d="M55.79,82.28h-15a14,14,0,0,1-14-14h0a14,14,0,0,1,14-14h15"/><path class="cls-2" d="M113.79,102.28v11a1,1,0,0,1-1,1h-31a1,1,0,0,1-1-1v-11"/><polygon class="cls-4" points="96.79 96.28 103.79 96.28 94.79 105.28 85.79 96.28 92.79 96.28 92.79 82.28 96.79 82.28 96.79 96.28"/><polygon class="cls-5" points="100.79 96.28 107.79 96.28 96.79 107.28 85.79 96.28 92.79 96.28 92.79 82.28 100.79 82.28 100.79 96.28"/></svg>