<?xml version="1.0" encoding="UTF-8"?>
<svg width="40px" height="40px" viewBox="0 0 40 40" version="1.1" xmlns="http://www.w3.org/2000/svg" xmlns:xlink="http://www.w3.org/1999/xlink">
    <!-- Generator: Sketch 51.3 (57544) - http://www.bohemiancoding.com/sketch -->
    <title>js</title>
    <desc>Created with Sketch.</desc>
    <defs></defs>
    <g id="js" stroke="none" stroke-width="1" fill="none" fill-rule="evenodd">
        <g id="javascript-copy" transform="translate(3.000000, 3.000000)" fill-rule="nonzero">
            <polygon id="Shape" fill="#F7DF1E" points="0 0 33.9254816 0 33.9254816 33.6839232 0 33.6839232"></polygon>
            <path d="M8.92028131,28.1487073 L11.5163758,26.5887206 C12.0173067,27.4704236 12.4729153,28.2164699 13.5658194,28.2164699 C14.6134012,28.2164699 15.2740204,27.8096312 15.2740204,26.2270132 L15.2740204,15.4642102 L18.4620881,15.4642102 L18.4620881,26.2717496 C18.4620881,29.5502743 16.5264803,31.04263 13.702449,31.04263 C11.1520744,31.04263 9.67167772,29.7311938 8.92014879,28.1484441 M20.1937453,27.8094997 L22.7895748,26.3172755 C23.4729877,27.4252924 24.3611462,28.2392328 25.9323201,28.2392328 C27.253426,28.2392328 28.0957321,27.583449 28.0957321,26.678983 C28.0957321,25.5937291 27.2303673,25.2092587 25.7728968,24.5763693 L24.9760456,24.2368986 C22.6758714,23.2649332 21.1501524,22.0438909 21.1501524,19.4662813 C21.1501524,17.0920911 22.9719242,15.2831591 25.8186167,15.2831591 C27.8453992,15.2831591 29.3028697,15.9842058 30.3503189,17.8156375 L27.8679278,19.3985188 C27.321277,18.4262902 26.7294364,18.0419514 25.8184842,18.0419514 C24.8847383,18.0419514 24.2926326,18.6298411 24.2926326,19.3985188 C24.2926326,20.3481159 24.8847383,20.7327179 26.2510341,21.3206076 L27.0480178,21.6596837 C29.7580807,22.8129633 31.2837997,23.9886112 31.2837997,26.6338518 C31.2837997,29.483038 29.0293455,31.0430247 26.0005686,31.0430247 C23.0401728,31.0430247 21.1272262,29.6411946 20.1936128,27.8096312" id="Shape" fill="#000000"></path>
        </g>
    </g>
</svg>