<?xml version="1.0" encoding="UTF-8"?>
<svg width="40px" height="40px" viewBox="0 0 40 40" version="1.1" xmlns="http://www.w3.org/2000/svg" xmlns:xlink="http://www.w3.org/1999/xlink">
    <!-- Generator: Sketch 51.3 (57544) - http://www.bohemiancoding.com/sketch -->
    <title>react</title>
    <desc>Created with Sketch.</desc>
    <defs></defs>
    <g id="react" stroke="none" stroke-width="1" fill="none" fill-rule="evenodd">
        <g id="react-copy-2" transform="translate(3.000000, 4.000000)" fill="#53C1DE" fill-rule="nonzero">
            <path d="M27.954947,10.3717593 C31.6270601,11.7089874 34,13.8037288 34,15.9696213 C34,18.2284719 31.4640992,20.4370233 27.5662784,21.8030621 C27.3602825,21.8753275 27.1491706,21.9447277 26.933996,22.0118995 C27.0107366,22.3385263 27.0792013,22.6592637 27.1378853,22.9733157 C27.9073979,27.0849619 27.3148401,30.4644037 25.4911222,31.5811746 C23.7253359,32.6624495 20.8714883,31.6002756 17.9818283,28.9699108 C17.6677355,28.6833081 17.3612559,28.3874994 17.0627467,28.0828292 C16.8257537,28.3252525 16.5890616,28.5565336 16.3532723,28.7746032 C13.3700189,31.5331038 10.3064136,32.6775711 8.48104056,31.5641429 C6.71374958,30.4857331 6.15835826,27.3399601 6.86948786,23.3780974 C6.94719212,22.9475279 7.03625601,22.5193395 7.13657526,22.0940337 C6.82777425,22.0007883 6.52121821,21.8994155 6.21719273,21.7900097 C2.46773708,20.4344765 0,18.1987062 0,15.9696213 C0,13.8115283 2.29890775,11.7307944 5.89849351,10.4032759 C6.30085503,10.2549249 6.72142364,10.1154878 7.15688895,9.984646 C7.06360146,9.58987338 6.9798118,9.19265693 6.90560109,8.79338125 C6.15971251,4.76148168 6.68455806,1.5393047 8.45651366,0.454209586 C10.3044575,-0.677364595 13.3820567,0.537776395 16.4524332,3.42170677 C16.6434189,3.60148663 16.8312399,3.78499369 17.0157995,3.97213348 C17.2913963,3.69069518 17.5736711,3.41666778 17.8623537,3.15031361 C20.7920392,0.453413712 23.692834,-0.674817797 25.4664448,0.407252998 C27.3163448,1.53548451 27.8580432,4.9628379 27.0295456,9.21726394 C26.9777767,9.48156682 26.9213903,9.74483405 26.8604153,10.0069305 C27.2280979,10.1187962 27.5930576,10.2404444 27.954947,10.3717593 Z M27.1094461,20.3447019 L27.1095966,20.3447019 C30.4748978,19.1650569 32.5476464,17.3600138 32.5476464,15.9696213 C32.5476464,14.6643873 30.6285294,12.9702891 27.4821647,11.8247076 C27.1568447,11.7061223 26.819186,11.593904 26.4714458,11.4872568 C26.0531342,12.9190348 25.494884,14.4316736 24.8167077,15.9772617 C25.5272354,17.5602558 26.1080564,19.0926323 26.5384057,20.5336424 C26.7328152,20.4726785 26.9236134,20.4098044 27.1094461,20.3447019 Z M25.713068,23.2717686 C25.6599515,22.9879598 25.5982581,22.697784 25.5290411,22.4017188 C24.1207757,22.746014 22.567907,22.9983062 20.9241534,23.1525466 C19.9897237,24.5835288 19.0322718,25.8722085 18.074218,26.9807024 C18.3604153,27.2719924 18.6458603,27.5473649 18.9291986,27.8052282 C21.4002461,30.0546875 23.6917807,30.9075465 24.7632902,30.2514277 C25.2667688,29.943106 25.6739454,29.1733363 25.8764804,28.0186817 C26.1018871,26.733663 26.0532847,25.089864 25.713068,23.2717686 Z M11.5912921,30.1380952 L11.5914426,30.1380952 C12.7563951,29.7027519 14.0782896,28.8374773 15.3974756,27.617561 C15.618265,27.4128936 15.8342574,27.2025067 16.0452566,26.9865918 C15.0524438,25.8594746 14.0673051,24.5723865 13.1267061,23.1721252 C11.4790402,23.0307779 9.93745685,22.7963133 8.54484059,22.4704823 C8.45166118,22.866021 8.36886987,23.2642174 8.29656216,23.6646122 C7.68850573,27.0526494 8.13420312,29.5787547 9.20676592,30.2329634 C9.71069589,30.5403301 10.54446,30.5291878 11.5912921,30.1380952 Z M6.6869656,20.3361064 C6.96454785,20.4360072 7.24440956,20.528675 7.52629716,20.6140258 C7.9557436,19.1329036 8.52181841,17.5779242 9.20405743,16.0070274 C8.53054577,14.4592109 7.97244596,12.9285853 7.54691179,11.464654 C7.1533293,11.5823799 6.76308915,11.7122692 6.37669281,11.8541549 C3.2981908,12.9895493 1.45235356,14.6600896 1.45235356,15.9696213 C1.45235356,16.5851505 1.87818867,17.3436188 2.72143249,18.1076582 C3.65992494,18.957652 5.02906761,19.7366538 6.6869656,20.3361064 Z M8.3310202,8.49827103 L8.3310202,8.49811185 C8.40010063,8.86952188 8.4780196,9.23903104 8.56470286,9.60628733 C9.97191489,9.26899577 11.5026642,9.01718112 13.1017278,8.86039387 C14.0342013,7.46825042 15.0103117,6.19087205 15.9980085,5.06884836 C15.8275239,4.89646198 15.6573404,4.72980588 15.4879092,4.57063101 C12.8368974,2.08065845 10.3217618,1.08740724 9.18419515,1.78395649 C8.11629698,2.43784687 7.69196658,5.04369873 8.3310202,8.49827103 Z M22.9970525,12.3291327 C23.3348193,12.9460428 23.6609065,13.5700266 23.975119,14.2007109 C24.4051674,13.135831 24.7703624,12.0970558 25.0633309,11.1036454 C24.087371,10.8679074 23.0480625,10.6753058 21.963161,10.5304566 C22.3199615,11.122092 22.664672,11.7217899 22.9970525,12.3291327 Z M17.016251,6.16683665 C16.3358176,6.94345086 15.659146,7.79949333 14.9985749,8.72095668 C16.337349,8.65467275 17.6783284,8.65499145 19.0170741,8.72191173 C18.3571049,7.79185294 17.6861513,6.93453707 17.016251,6.16683665 Z M10.9970791,12.3396383 C11.3310627,11.7270756 11.6785978,11.1228935 12.0393971,10.5275915 C10.9615677,10.670053 9.9270743,10.8577202 8.95698278,11.0874095 C9.25250934,12.0949865 9.61439395,13.1383778 10.0373701,14.1995967 C10.3435511,13.5717971 10.6635413,12.9516421 10.9970791,12.3396383 Z M12.0703942,21.5213225 C11.7007528,20.9146955 11.3448361,20.2988321 11.0029475,19.6742573 C10.6678933,19.0619787 10.3464971,18.4414496 10.0390253,17.8131847 C9.60702084,18.8971656 9.23716122,19.9630005 8.93697003,20.9884051 C9.90676061,21.2117274 10.9569031,21.3898441 12.0703942,21.5213225 Z M17.0564269,25.8809632 C17.7218131,25.1059407 18.3903592,24.2355725 19.052435,23.2837067 C18.378171,23.3155417 17.693073,23.3319367 17,23.3319367 C16.325435,23.3319367 15.661704,23.3182477 15.0107632,23.291188 C15.6814159,24.226022 16.3680186,25.0951168 17.0564269,25.8809632 Z M23.9889625,17.757951 C23.673688,18.4008249 23.344926,19.0361962 23.0029209,19.6635926 C22.6664874,20.2809187 22.3184777,20.8911037 21.9590982,21.4937853 C23.0805644,21.3514829 24.1448512,21.1598364 25.1307423,20.92187 C24.8264883,19.9138155 24.4433872,18.8537108 23.9889625,17.757951 Z M21.744676,18.8960513 L21.7448264,18.8960513 C22.2643207,17.9442694 22.7516063,16.9732178 23.2057569,15.9847429 C22.7468861,15.0062374 22.2580457,14.0437816 21.7400113,13.0989024 C21.2248871,12.1564928 20.678485,11.2336062 20.1018251,10.3319656 C19.0909558,10.250468 18.052851,10.2078092 17.0001505,10.2078092 C15.9521146,10.2078092 14.9153641,10.2501497 13.9041937,10.3310105 C13.3216414,11.2340408 12.7717222,12.160151 12.255625,13.1073387 L12.255625,13.1070203 C11.7393658,14.0540063 11.2569634,15.0212 10.8094408,16.0065498 C11.2581046,16.9916046 11.7419692,17.9582804 12.2599887,18.9044876 C12.7804408,19.8557418 13.3347237,20.7858289 13.9216485,21.6927539 C14.912806,21.7607215 15.942033,21.7955808 17,21.7955808 C18.0623307,21.7955808 19.1047992,21.7562647 20.1135619,21.6800199 C20.685649,20.7709783 21.2296412,19.8424981 21.744676,18.8960513 Z M24.7410204,1.7382733 C23.6720689,1.08613384 21.3260635,1.99852422 18.8158934,4.30942504 C18.5493774,4.55541245 18.2886799,4.80836631 18.034042,5.06805249 C19.0057887,6.17559126 19.9737737,7.45519808 20.9080529,8.86246314 C22.5117811,9.02163802 24.0435837,9.27790956 25.4541061,9.62220482 C25.5091304,9.38485989 25.5600985,9.14648318 25.6069854,8.90719128 C26.3223282,5.23391271 25.8794898,2.43291245 24.7410204,1.7382733 Z M17.0732478,12.3760528 C18.8788833,12.3760528 20.3424786,13.8684742 20.3424786,15.7093035 C20.3424786,17.5502981 18.8788833,19.0427195 17.0732478,19.0427195 C15.2677743,19.0427195 13.804017,17.5502981 13.804017,15.7093035 C13.804017,13.8684742 15.2677743,12.3760528 17.0732478,12.3760528 Z" id="Combined-Shape"></path>
        </g>
    </g>
</svg>